<svg xmlns="http://www.w3.org/2000/svg" viewBox="0 0 640 480" role="img" aria-labelledby="title desc">
  <title id="title">Shape classifier illustration</title>
  <desc id="desc">A stylized drawing grid with a circle, square, and triangle.</desc>
  <defs>
    <linearGradient id="bg" x1="0" x2="1" y1="0" y2="1">
      <stop offset="0%" stop-color="#f7f1df"/>
      <stop offset="100%" stop-color="#dce9e2"/>
    </linearGradient>
  </defs>
  <rect width="640" height="480" rx="24" fill="url(#bg)"/>
  <rect x="56" y="64" width="248" height="248" rx="18" fill="#fffdf8" stroke="#c8c0b3" stroke-width="6"/>
  <g stroke="#e8e1d5" stroke-width="2">
    <path d="M84 64v248M112 64v248M140 64v248M168 64v248M196 64v248M224 64v248M252 64v248M280 64v248"/>
    <path d="M56 92h248M56 120h248M56 148h248M56 176h248M56 204h248M56 232h248M56 260h248M56 288h248"/>
  </g>
  <circle cx="180" cy="188" r="58" fill="none" stroke="#1f5f46" stroke-width="18"/>
  <rect x="368" y="104" width="100" height="100" rx="14" fill="none" stroke="#9d4e1c" stroke-width="18"/>
  <path d="M512 228 456 340 568 340Z" fill="none" stroke="#294a7a" stroke-width="18" stroke-linejoin="round"/>
  <rect x="340" y="254" width="232" height="100" rx="18" fill="#fffdf8" stroke="#c8c0b3" stroke-width="6"/>
  <text x="364" y="298" font-family="Georgia, serif" font-size="28" fill="#3a372f">triangle: 0.93</text>
  <text x="364" y="332" font-family="Georgia, serif" font-size="20" fill="#726a5d">circle: 0.04 square: 0.03</text>
</svg>
